<?xml version="1.0" standalone="no"?>
<!DOCTYPE svg PUBLIC "-//W3C//DTD SVG 20010904//EN"
 "http://www.w3.org/TR/2001/REC-SVG-20010904/DTD/svg10.dtd">
<svg version="1.0" xmlns="http://www.w3.org/2000/svg"
 width="255.000000pt" height="255.000000pt" viewBox="0 0 255.000000 255.000000"
 preserveAspectRatio="xMidYMid meet">
<metadata>
Created by potrace 1.11, written by Peter Selinger 2001-2013
</metadata>
<g transform="translate(0.000000,255.000000) scale(0.100000,-0.100000)"
fill="#000000" stroke="none">
<path d="M1175 2508 c-92 -8 -210 -35 -228 -52 -7 -6 -21 -13 -32 -14 -31 -6
-155 -71 -155 -82 0 -6 -6 -10 -13 -10 -7 0 -23 -9 -35 -20 -12 -11 -24 -20
-27 -20 -27 0 -245 -267 -245 -300 0 -6 -4 -10 -8 -10 -9 0 -31 -49 -45 -102
-2 -7 -9 -25 -15 -40 -38 -92 -47 -155 -47 -318 1 -164 8 -214 47 -308 6 -15
13 -35 14 -44 2 -9 13 -33 24 -52 11 -20 17 -36 13 -36 -3 0 2 -9 12 -20 10
-11 14 -20 9 -20 -5 0 -4 -4 1 -8 6 -4 25 -30 42 -57 18 -28 46 -64 63 -80 16
-16 30 -34 30 -41 0 -7 4 -14 8 -16 11 -4 87 -65 116 -93 12 -11 24 -19 28
-18 4 2 12 -6 18 -17 6 -11 17 -20 25 -20 8 0 15 -4 15 -9 0 -5 14 -14 30 -20
17 -5 30 -15 30 -21 0 -6 5 -8 10 -5 6 3 10 1 10 -5 0 -6 5 -8 10 -5 6 3 10 1
10 -5 0 -6 5 -8 10 -5 6 3 16 3 23 -2 22 -14 72 -9 100 10 16 11 26 21 23 24
-3 3 1 12 9 20 11 10 15 37 15 88 0 54 4 74 14 78 8 3 16 2 18 -4 4 -11 103
-24 175 -23 67 1 193 25 193 36 0 5 5 6 10 3 6 -3 10 -40 10 -80 0 -68 3 -78
28 -106 39 -44 89 -42 179 6 73 38 213 145 239 183 9 13 28 36 43 51 14 16 32
37 39 47 59 89 85 136 100 177 9 26 20 47 25 47 4 0 6 4 2 9 -3 5 4 32 14 59
11 27 17 53 14 56 -4 3 -1 6 5 6 6 0 9 9 7 20 -2 11 0 22 6 25 5 4 7 22 5 41
-3 19 -1 34 2 34 7 0 8 192 2 215 -1 6 -4 24 -5 40 -3 35 -9 59 -25 100 -6 17
-11 30 -10 30 10 0 -63 175 -85 205 -14 19 -25 38 -25 42 0 5 -5 14 -10 21 -6
7 -24 30 -41 52 -43 56 -139 155 -150 155 -5 0 -9 5 -9 10 0 6 -6 10 -14 10
-8 0 -16 3 -18 8 -7 16 -178 118 -178 106 0 -4 -7 -1 -15 6 -8 7 -15 10 -15 6
0 -4 -11 1 -24 10 -30 19 -120 44 -162 44 -17 0 -33 3 -37 6 -9 9 -111 10
-202 2z m180 -68 c0 -1 18 -3 40 -5 22 -1 40 -3 40 -5 0 -2 17 -6 56 -14 15
-3 40 -13 55 -21 16 -8 34 -15 41 -15 7 0 28 -9 48 -20 19 -11 35 -17 35 -14
0 6 74 -48 78 -58 2 -5 9 -8 17 -8 7 0 32 -19 56 -42 24 -23 47 -41 52 -40 4
1 12 -9 17 -22 5 -13 15 -28 22 -33 17 -10 98 -119 98 -131 0 -5 7 -15 15 -22
8 -7 12 -16 9 -21 -3 -5 -1 -9 3 -9 12 0 59 -131 77 -210 28 -128 35 -223 21
-315 -16 -114 -91 -333 -125 -365 -3 -3 -14 -18 -24 -35 -28 -45 -140 -174
-151 -174 -5 -1 -28 -17 -50 -36 -22 -19 -47 -40 -55 -47 -8 -7 -17 -13 -20
-13 -3 -1 -24 -11 -46 -23 -23 -12 -56 -24 -73 -27 -27 -5 -33 -2 -41 20 -6
15 -10 55 -10 91 0 50 3 64 15 64 8 0 15 5 15 10 0 6 6 10 13 10 21 0 126 77
178 131 26 27 45 49 42 49 -4 0 3 8 13 18 48 42 119 218 139 342 9 54 11 170
3 170 -4 0 -7 15 -7 33 0 39 -5 64 -14 73 -4 4 -7 16 -7 26 0 25 -70 178 -82
178 -5 0 -6 5 -3 10 3 6 -1 13 -9 16 -9 3 -14 10 -11 15 3 4 -6 16 -20 25 -14
9 -25 22 -25 29 0 23 -134 126 -217 166 -105 51 -216 73 -338 67 -92 -5 -214
-33 -227 -52 -4 -6 -8 -8 -8 -4 0 4 -23 -6 -50 -22 -28 -17 -53 -30 -56 -30
-3 0 -11 -6 -18 -12 -7 -7 -30 -26 -51 -43 -21 -16 -44 -37 -51 -45 -72 -85
-120 -156 -129 -190 -1 -3 -10 -23 -20 -45 -9 -22 -18 -44 -19 -50 -1 -5 -4
-14 -7 -20 -3 -5 -5 -17 -4 -25 0 -8 -3 -17 -7 -20 -14 -10 -19 -194 -8 -260
6 -36 12 -71 12 -77 1 -7 5 -13 10 -13 5 0 7 -4 4 -9 -3 -5 1 -25 9 -45 8 -20
14 -37 13 -39 -2 -2 5 -11 15 -21 9 -10 15 -21 12 -26 -3 -5 -2 -10 2 -12 5
-1 17 -20 27 -41 29 -56 121 -153 190 -199 33 -23 64 -46 67 -51 3 -5 9 -8 13
-8 17 2 24 0 42 -18 16 -15 20 -29 18 -72 -4 -91 -14 -119 -44 -119 -24 0 -90
31 -90 42 0 4 -6 8 -12 8 -20 0 -157 107 -224 175 -57 57 -164 215 -164 242 0
7 -5 13 -11 13 -5 0 -8 4 -4 9 3 5 1 12 -5 16 -6 4 -8 10 -5 15 3 5 1 11 -5
15 -6 4 -8 11 -5 16 4 5 1 9 -5 9 -6 0 -8 5 -5 10 3 6 3 16 -1 22 -5 7 -9 19
-11 28 -6 36 -12 67 -19 90 -4 14 -7 81 -6 150 1 155 1 160 12 160 5 0 7 10 5
21 -3 12 -1 27 3 33 4 6 7 14 8 19 1 4 2 8 3 10 2 1 4 13 7 26 2 14 8 29 13
35 5 6 12 25 15 41 7 34 84 170 113 200 11 11 31 36 46 55 14 20 57 60 94 90
37 30 71 59 75 65 4 5 8 6 8 2 0 -4 15 3 33 17 31 24 237 110 237 99 0 -3 6
-1 13 4 6 6 27 9 45 7 17 -1 32 1 32 5 0 4 46 6 103 5 56 -1 102 -3 102 -4z"/>
<path d="M432 501 c-18 -14 -32 -32 -32 -38 0 -7 -4 -13 -8 -13 -21 0 -45 -79
-50 -162 -4 -75 -1 -93 18 -132 57 -119 170 -130 227 -23 10 18 16 35 15 40
-1 4 2 7 7 7 5 0 8 12 7 28 -2 15 -1 31 2 37 3 5 7 29 7 53 1 24 6 47 11 50
12 9 14 62 3 63 -5 1 -13 3 -19 4 -5 1 -14 3 -20 4 -5 0 -10 5 -10 11 0 25
-33 48 -62 43 -26 -4 -29 -2 -24 15 7 19 -5 34 -30 38 -5 1 -25 -10 -42 -25z
m53 -151 c7 -6 26 -13 41 -16 36 -7 35 -4 36 -57 0 -32 -8 -64 -26 -100 -23
-49 -29 -54 -52 -49 -29 5 -66 36 -56 46 3 3 0 6 -7 6 -8 0 -10 7 -6 20 3 11
2 20 -3 20 -12 0 -5 141 8 158 2 1 3 5 4 10 1 4 10 22 21 40 l20 34 3 -50 c2
-28 9 -55 17 -62z m61 43 c-7 -7 -26 7 -26 19 0 6 6 6 15 -2 9 -7 13 -15 11
-17z"/>
<path d="M1414 519 c-3 -5 -10 -7 -15 -4 -5 4 -23 -3 -39 -15 -17 -12 -30 -18
-30 -13 0 4 -13 -12 -29 -37 -35 -54 -43 -134 -18 -191 27 -60 65 -74 81 -28
7 21 5 30 -13 48 -25 25 -28 88 -6 131 13 25 60 50 96 50 3 0 6 -40 6 -90 -1
-79 -3 -90 -18 -90 -10 0 -20 -3 -22 -7 -8 -14 12 -53 27 -53 20 0 19 -115 -1
-131 -11 -10 -11 -15 3 -30 10 -11 27 -19 40 -19 29 0 44 42 44 121 0 33 5 60
10 60 6 1 19 2 29 3 24 1 31 8 36 35 3 19 -1 21 -36 21 l-39 0 0 90 c0 100 -8
91 78 92 39 1 66 25 57 51 -5 11 -31 14 -120 15 -63 0 -117 -4 -121 -9z"/>
<path d="M2157 493 c-3 -3 -3 -15 1 -27 6 -19 7 -38 3 -113 0 -13 -7 -23 -14
-23 -28 0 -86 -61 -93 -98 -4 -20 -10 -41 -14 -47 -5 -5 -8 -14 -8 -20 0 -5
-4 -11 -9 -12 -5 -2 -8 26 -8 62 1 37 -3 65 -8 65 -6 0 -8 3 -4 6 13 13 -24
36 -51 31 -17 -3 -34 1 -44 10 -16 14 -20 11 -47 -32 -17 -27 -28 -52 -25 -56
3 -5 1 -9 -4 -9 -6 0 -10 -6 -9 -12 1 -36 -4 -56 -16 -61 -10 -4 -13 9 -12 54
1 52 -2 62 -26 85 -21 20 -34 25 -53 20 -14 -3 -28 -2 -31 4 -3 5 -12 10 -18
10 -13 -1 -48 -44 -51 -63 -1 -7 -4 -16 -7 -22 -11 -21 -2 -111 14 -141 26
-50 90 -61 126 -23 29 31 85 32 112 2 29 -30 84 -31 114 -3 33 31 65 33 90 6
19 -21 30 -23 106 -24 70 0 87 4 102 19 20 21 33 79 24 103 -8 21 -37 9 -37
-14 0 -29 -11 -50 -26 -50 -17 0 -16 -16 -18 187 0 94 -4 174 -7 177 -9 9 -46
15 -52 9z m-469 -270 c1 -26 9 -57 17 -69 11 -18 12 -24 2 -33 -20 -16 -36 2
-43 50 -5 36 7 99 18 99 2 0 4 -21 6 -47z m473 35 c9 -112 -11 -164 -49 -126
-15 15 -15 58 -1 95 14 38 48 58 50 31z m-232 -107 c11 -19 11 -25 0 -32 -28
-17 -52 78 -32 128 6 13 9 6 13 -27 3 -25 12 -56 19 -69z m35 94 c-4 -8 -8
-15 -10 -15 -2 0 -4 7 -4 15 0 8 4 15 10 15 5 0 7 -7 4 -15z m1 -35 c3 -5 1
-10 -4 -10 -6 0 -11 5 -11 10 0 6 2 10 4 10 3 0 8 -4 11 -10z"/>
<path d="M1188 463 c-18 -4 -20 -9 -20 -38 0 -26 2 -30 21 -42 16 -10 24 -9
45 8 31 25 32 33 6 59 -20 20 -22 21 -52 13z"/>
<path d="M728 319 c-17 -12 -29 -16 -33 -9 -3 5 -16 10 -28 10 -21 0 -22 -3
-21 -112 0 -120 9 -152 40 -146 16 3 20 15 25 90 4 62 11 91 23 103 9 10 19
15 22 13 2 -3 5 -51 6 -106 2 -99 2 -102 25 -102 13 0 24 3 24 8 1 4 3 34 5
67 4 71 6 83 22 113 22 39 29 24 31 -65 3 -117 7 -124 79 -120 31 1 62 6 68 9
6 4 10 34 10 70 -1 46 3 70 17 91 10 15 22 27 27 27 4 0 8 -32 9 -71 0 -39 7
-83 14 -98 11 -24 18 -26 77 -28 36 -1 74 0 86 2 32 7 72 103 51 124 -18 18
-26 13 -43 -29 -9 -22 -19 -40 -23 -40 -4 0 -6 35 -5 79 2 62 -2 85 -17 110
-16 27 -22 30 -39 21 -17 -9 -20 -21 -19 -83 1 -113 0 -129 -11 -122 -5 3 -10
42 -10 87 0 99 -17 130 -65 115 -17 -5 -48 -10 -70 -10 l-40 -2 0 -85 c0 -83
-12 -119 -35 -105 -5 3 -10 46 -10 94 0 86 -5 100 -40 123 -3 1 -20 -8 -38
-21 -29 -20 -35 -21 -45 -8 -20 24 -41 26 -69 6z"/>
</g>
</svg>
